<mxfile host="Electron" agent="Mozilla/5.0 (Windows NT 10.0; Win64; x64) AppleWebKit/537.36 (KHTML, like Gecko) draw.io/24.7.17 Chrome/128.0.6613.36 Electron/32.0.1 Safari/537.36" version="24.7.17">
  <diagram name="Сторінка-1" id="ipd86VKXyD0MnjzgzBQY">
    <mxGraphModel dx="954" dy="657" grid="1" gridSize="10" guides="1" tooltips="1" connect="1" arrows="1" fold="1" page="1" pageScale="1" pageWidth="827" pageHeight="1169" math="0" shadow="0">
      <root>
        <mxCell id="0" />
        <mxCell id="1" parent="0" />
        <mxCell id="7SKCIVAx58QdzPnPzdH6-3" value="" style="edgeStyle=orthogonalEdgeStyle;rounded=0;orthogonalLoop=1;jettySize=auto;html=1;" parent="1" source="7SKCIVAx58QdzPnPzdH6-1" target="7SKCIVAx58QdzPnPzdH6-2" edge="1">
          <mxGeometry relative="1" as="geometry" />
        </mxCell>
        <mxCell id="7SKCIVAx58QdzPnPzdH6-1" value="&lt;font style=&quot;font-size: 20px;&quot;&gt;start&lt;/font&gt;" style="ellipse;whiteSpace=wrap;html=1;" parent="1" vertex="1">
          <mxGeometry x="354" y="10" width="120" height="80" as="geometry" />
        </mxCell>
        <mxCell id="7SKCIVAx58QdzPnPzdH6-6" value="" style="edgeStyle=orthogonalEdgeStyle;rounded=0;orthogonalLoop=1;jettySize=auto;html=1;" parent="1" source="7SKCIVAx58QdzPnPzdH6-2" target="7SKCIVAx58QdzPnPzdH6-5" edge="1">
          <mxGeometry relative="1" as="geometry" />
        </mxCell>
        <mxCell id="7SKCIVAx58QdzPnPzdH6-2" value="&lt;font style=&quot;font-size: 20px;&quot;&gt;int n,k,x&lt;/font&gt;" style="whiteSpace=wrap;html=1;" parent="1" vertex="1">
          <mxGeometry x="354" y="180" width="120" height="60" as="geometry" />
        </mxCell>
        <mxCell id="7SKCIVAx58QdzPnPzdH6-10" value="" style="edgeStyle=orthogonalEdgeStyle;rounded=0;orthogonalLoop=1;jettySize=auto;html=1;" parent="1" source="7SKCIVAx58QdzPnPzdH6-5" target="7SKCIVAx58QdzPnPzdH6-9" edge="1">
          <mxGeometry relative="1" as="geometry" />
        </mxCell>
        <mxCell id="7SKCIVAx58QdzPnPzdH6-5" value="&lt;font style=&quot;font-size: 20px;&quot;&gt;cin &amp;gt;&amp;gt;n,k,x&lt;/font&gt;" style="shape=parallelogram;perimeter=parallelogramPerimeter;whiteSpace=wrap;html=1;fixedSize=1;" parent="1" vertex="1">
          <mxGeometry x="341" y="320" width="146" height="70" as="geometry" />
        </mxCell>
        <mxCell id="7SKCIVAx58QdzPnPzdH6-12" value="" style="edgeStyle=orthogonalEdgeStyle;rounded=0;orthogonalLoop=1;jettySize=auto;html=1;" parent="1" source="7SKCIVAx58QdzPnPzdH6-9" target="7SKCIVAx58QdzPnPzdH6-11" edge="1">
          <mxGeometry relative="1" as="geometry" />
        </mxCell>
        <mxCell id="7SKCIVAx58QdzPnPzdH6-9" value="&lt;font style=&quot;font-size: 20px;&quot;&gt;int h[n]&lt;/font&gt;" style="whiteSpace=wrap;html=1;" parent="1" vertex="1">
          <mxGeometry x="354" y="475" width="120" height="60" as="geometry" />
        </mxCell>
        <mxCell id="7SKCIVAx58QdzPnPzdH6-16" value="" style="edgeStyle=orthogonalEdgeStyle;rounded=0;orthogonalLoop=1;jettySize=auto;html=1;" parent="1" source="7SKCIVAx58QdzPnPzdH6-11" target="7SKCIVAx58QdzPnPzdH6-15" edge="1">
          <mxGeometry relative="1" as="geometry" />
        </mxCell>
        <mxCell id="7SKCIVAx58QdzPnPzdH6-34" value="" style="edgeStyle=orthogonalEdgeStyle;rounded=0;orthogonalLoop=1;jettySize=auto;html=1;" parent="1" source="7SKCIVAx58QdzPnPzdH6-11" target="7SKCIVAx58QdzPnPzdH6-33" edge="1">
          <mxGeometry relative="1" as="geometry" />
        </mxCell>
        <mxCell id="7SKCIVAx58QdzPnPzdH6-11" value="&lt;font style=&quot;font-size: 20px;&quot;&gt;for (int i =0; i&amp;lt;n)&lt;/font&gt;" style="rhombus;whiteSpace=wrap;html=1;" parent="1" vertex="1">
          <mxGeometry x="295" y="621" width="236" height="80" as="geometry" />
        </mxCell>
        <mxCell id="7SKCIVAx58QdzPnPzdH6-18" value="" style="edgeStyle=orthogonalEdgeStyle;rounded=0;orthogonalLoop=1;jettySize=auto;html=1;" parent="1" source="7SKCIVAx58QdzPnPzdH6-15" target="7SKCIVAx58QdzPnPzdH6-17" edge="1">
          <mxGeometry relative="1" as="geometry" />
        </mxCell>
        <mxCell id="7SKCIVAx58QdzPnPzdH6-15" value="&lt;font style=&quot;font-size: 20px;&quot;&gt;cin&amp;nbsp; &amp;gt;&amp;gt; h[n]&lt;/font&gt;" style="shape=parallelogram;perimeter=parallelogramPerimeter;whiteSpace=wrap;html=1;fixedSize=1;" parent="1" vertex="1">
          <mxGeometry x="329" y="791" width="167" height="60" as="geometry" />
        </mxCell>
        <mxCell id="7SKCIVAx58QdzPnPzdH6-20" value="" style="edgeStyle=orthogonalEdgeStyle;rounded=0;orthogonalLoop=1;jettySize=auto;html=1;" parent="1" source="7SKCIVAx58QdzPnPzdH6-17" target="7SKCIVAx58QdzPnPzdH6-19" edge="1">
          <mxGeometry relative="1" as="geometry" />
        </mxCell>
        <mxCell id="7SKCIVAx58QdzPnPzdH6-29" value="" style="edgeStyle=orthogonalEdgeStyle;rounded=0;orthogonalLoop=1;jettySize=auto;html=1;" parent="1" source="7SKCIVAx58QdzPnPzdH6-17" target="7SKCIVAx58QdzPnPzdH6-28" edge="1">
          <mxGeometry relative="1" as="geometry" />
        </mxCell>
        <mxCell id="7SKCIVAx58QdzPnPzdH6-17" value="&lt;font style=&quot;font-size: 20px;&quot;&gt;h[i]&amp;gt;k&lt;/font&gt;" style="rhombus;whiteSpace=wrap;html=1;" parent="1" vertex="1">
          <mxGeometry x="323.5" y="921" width="177.5" height="80" as="geometry" />
        </mxCell>
        <mxCell id="7SKCIVAx58QdzPnPzdH6-23" value="" style="edgeStyle=orthogonalEdgeStyle;rounded=0;orthogonalLoop=1;jettySize=auto;html=1;" parent="1" source="7SKCIVAx58QdzPnPzdH6-19" target="7SKCIVAx58QdzPnPzdH6-22" edge="1">
          <mxGeometry relative="1" as="geometry" />
        </mxCell>
        <mxCell id="7SKCIVAx58QdzPnPzdH6-19" value="&lt;font style=&quot;font-size: 20px;&quot;&gt;s++&lt;/font&gt;" style="whiteSpace=wrap;html=1;" parent="1" vertex="1">
          <mxGeometry x="352.5" y="1091" width="117.5" height="60" as="geometry" />
        </mxCell>
        <mxCell id="7SKCIVAx58QdzPnPzdH6-25" value="" style="edgeStyle=orthogonalEdgeStyle;rounded=0;orthogonalLoop=1;jettySize=auto;html=1;" parent="1" source="7SKCIVAx58QdzPnPzdH6-22" target="7SKCIVAx58QdzPnPzdH6-24" edge="1">
          <mxGeometry relative="1" as="geometry" />
        </mxCell>
        <mxCell id="7SKCIVAx58QdzPnPzdH6-30" style="edgeStyle=orthogonalEdgeStyle;rounded=0;orthogonalLoop=1;jettySize=auto;html=1;exitX=0;exitY=0.5;exitDx=0;exitDy=0;entryX=0.5;entryY=1;entryDx=0;entryDy=0;" parent="1" source="7SKCIVAx58QdzPnPzdH6-22" target="7SKCIVAx58QdzPnPzdH6-28" edge="1">
          <mxGeometry relative="1" as="geometry" />
        </mxCell>
        <mxCell id="7SKCIVAx58QdzPnPzdH6-22" value="&lt;font style=&quot;font-size: 20px;&quot;&gt;s-x&amp;gt;=2&lt;/font&gt;" style="rhombus;whiteSpace=wrap;html=1;" parent="1" vertex="1">
          <mxGeometry x="337.25" y="1221" width="148.75" height="80" as="geometry" />
        </mxCell>
        <mxCell id="7SKCIVAx58QdzPnPzdH6-27" value="" style="edgeStyle=orthogonalEdgeStyle;rounded=0;orthogonalLoop=1;jettySize=auto;html=1;" parent="1" source="7SKCIVAx58QdzPnPzdH6-24" target="7SKCIVAx58QdzPnPzdH6-26" edge="1">
          <mxGeometry relative="1" as="geometry" />
        </mxCell>
        <mxCell id="7SKCIVAx58QdzPnPzdH6-24" value="&lt;font style=&quot;font-size: 20px;&quot;&gt;cout &amp;lt;&amp;lt; &quot;NO&quot;&lt;/font&gt;" style="whiteSpace=wrap;html=1;" parent="1" vertex="1">
          <mxGeometry x="341.63" y="1391" width="138.38" height="60" as="geometry" />
        </mxCell>
        <mxCell id="7SKCIVAx58QdzPnPzdH6-26" value="&lt;font style=&quot;font-size: 20px;&quot;&gt;end&lt;/font&gt;" style="ellipse;whiteSpace=wrap;html=1;" parent="1" vertex="1">
          <mxGeometry x="371.625" y="1521" width="80" height="80" as="geometry" />
        </mxCell>
        <mxCell id="7SKCIVAx58QdzPnPzdH6-32" style="edgeStyle=orthogonalEdgeStyle;rounded=0;orthogonalLoop=1;jettySize=auto;html=1;exitX=0.5;exitY=0;exitDx=0;exitDy=0;" parent="1" source="7SKCIVAx58QdzPnPzdH6-28" edge="1">
          <mxGeometry relative="1" as="geometry">
            <mxPoint x="410" y="590" as="targetPoint" />
            <Array as="points">
              <mxPoint x="155" y="590" />
            </Array>
          </mxGeometry>
        </mxCell>
        <mxCell id="7SKCIVAx58QdzPnPzdH6-28" value="&lt;font style=&quot;font-size: 20px;&quot;&gt;i++&lt;/font&gt;" style="whiteSpace=wrap;html=1;" parent="1" vertex="1">
          <mxGeometry x="94.75" y="931" width="120" height="60" as="geometry" />
        </mxCell>
        <mxCell id="7SKCIVAx58QdzPnPzdH6-36" value="" style="edgeStyle=orthogonalEdgeStyle;rounded=0;orthogonalLoop=1;jettySize=auto;html=1;" parent="1" source="7SKCIVAx58QdzPnPzdH6-33" target="7SKCIVAx58QdzPnPzdH6-35" edge="1">
          <mxGeometry relative="1" as="geometry" />
        </mxCell>
        <mxCell id="7SKCIVAx58QdzPnPzdH6-33" value="&lt;span style=&quot;font-size: 20px;&quot;&gt;cout &amp;lt;&amp;lt; &quot;YES&quot;&lt;/span&gt;" style="shape=parallelogram;perimeter=parallelogramPerimeter;whiteSpace=wrap;html=1;fixedSize=1;" parent="1" vertex="1">
          <mxGeometry x="669" y="718" width="171" height="60" as="geometry" />
        </mxCell>
        <mxCell id="7SKCIVAx58QdzPnPzdH6-35" value="&lt;font style=&quot;font-size: 20px;&quot;&gt;end&lt;/font&gt;" style="ellipse;whiteSpace=wrap;html=1;" parent="1" vertex="1">
          <mxGeometry x="714.5" y="848" width="80" height="80" as="geometry" />
        </mxCell>
        <mxCell id="rlebSgXcaZrilzzTh2PQ-1" value="no" style="text;html=1;align=center;verticalAlign=middle;resizable=0;points=[];autosize=1;strokeColor=none;fillColor=none;" vertex="1" parent="1">
          <mxGeometry x="590" y="628" width="40" height="30" as="geometry" />
        </mxCell>
        <mxCell id="rlebSgXcaZrilzzTh2PQ-2" value="yes" style="text;html=1;align=center;verticalAlign=middle;resizable=0;points=[];autosize=1;strokeColor=none;fillColor=none;" vertex="1" parent="1">
          <mxGeometry x="414" y="710" width="40" height="30" as="geometry" />
        </mxCell>
        <mxCell id="rlebSgXcaZrilzzTh2PQ-3" value="yes" style="text;html=1;align=center;verticalAlign=middle;resizable=0;points=[];autosize=1;strokeColor=none;fillColor=none;" vertex="1" parent="1">
          <mxGeometry x="360" y="1038" width="40" height="30" as="geometry" />
        </mxCell>
        <mxCell id="rlebSgXcaZrilzzTh2PQ-4" value="no" style="text;html=1;align=center;verticalAlign=middle;resizable=0;points=[];autosize=1;strokeColor=none;fillColor=none;" vertex="1" parent="1">
          <mxGeometry x="270" y="928" width="40" height="30" as="geometry" />
        </mxCell>
        <mxCell id="rlebSgXcaZrilzzTh2PQ-5" value="no" style="text;html=1;align=center;verticalAlign=middle;resizable=0;points=[];autosize=1;strokeColor=none;fillColor=none;" vertex="1" parent="1">
          <mxGeometry x="289" y="1230" width="40" height="30" as="geometry" />
        </mxCell>
        <mxCell id="rlebSgXcaZrilzzTh2PQ-6" value="yes" style="text;html=1;align=center;verticalAlign=middle;resizable=0;points=[];autosize=1;strokeColor=none;fillColor=none;" vertex="1" parent="1">
          <mxGeometry x="360" y="1328" width="40" height="30" as="geometry" />
        </mxCell>
      </root>
    </mxGraphModel>
  </diagram>
</mxfile>
